<svg width="45" height="28" viewBox="0 0 45 28" fill="none" xmlns="http://www.w3.org/2000/svg">
<ellipse cx="22.5" cy="13.5" rx="22.5" ry="7.5" fill="#54C3E7"/>
<path d="M10.6464 27.3536C10.8417 27.5488 11.1583 27.5488 11.3536 27.3536L14.5355 24.1716C14.7308 23.9763 14.7308 23.6597 14.5355 23.4645C14.3403 23.2692 14.0237 23.2692 13.8284 23.4645L11 26.2929L8.17157 23.4645C7.97631 23.2692 7.65973 23.2692 7.46447 23.4645C7.2692 23.6597 7.2692 23.9763 7.46447 24.1716L10.6464 27.3536ZM10.5 15L10.5 27L11.5 27L11.5 15L10.5 15Z" fill="black"/>
<line x1="33.5" y1="2.18557e-08" x2="33.5" y2="12" stroke="black"/>
</svg>
